<?xml version="1.0" encoding="utf-8"?>
<!-- Generator: Adobe Illustrator 23.0.1, SVG Export Plug-In . SVG Version: 6.00 Build 0)  -->
<svg version="1.1" id="Layer_1" xmlns="http://www.w3.org/2000/svg" xmlns:xlink="http://www.w3.org/1999/xlink" x="0px" y="0px"
	 viewBox="0 0 485 138" style="enable-background:new 0 0 485 138;" xml:space="preserve">
<style type="text/css">
	.st0{fill:#FFFFFF;}
	.st1{font-family:'SnellRoundhand';}
	.st2{font-size:109.8279px;}
	.st3{fill:#005B97;}
	.st4{font-size:122.0168px;}
	.st5{fill:none;stroke:#FFFFFF;stroke-width:2;stroke-miterlimit:10;}
	.st6{font-family:'TrajanSansPro-Regular';}
	.st7{font-size:31px;}
</style>
<g>
	<rect x="1" y="0" class="st0" width="138.86" height="138.4"/>
</g>
<text transform="matrix(1 0 0 1 15.8423 92.6416)" class="st0 st1 st2">C</text>
<g>
	<rect x="139.86" y="170" class="st3" width="375.14" height="138.4"/>
</g>
<g>
	<rect x="23.26" y="22.65" class="st3" width="94.56" height="94.56"/>
</g>
<text transform="matrix(1 0 0 1 10.1636 94.5039)" class="st0 st1 st4">C</text>
<text transform="matrix(1 0 0 1 26.1792 126.5332)" class="st0 st1 st4">C</text>
<g>
	<text transform="matrix(1 0 0 1 211.7148 251.6777)" class="st0 st6 st7">Cabot Cruises</text>
</g>
<rect x="162" y="191" class="st5" width="330" height="97"/>
<g>
	<text transform="matrix(1 0 0 1 463.7148 272.6777)" class="st0 st6" style="font-size:22.1435px;">3</text>
</g>
<text transform="matrix(1 0 0 1 135.1792 -151.4668)" class="st0 st1 st4">C</text>
<text transform="matrix(1 0 0 1 308.1792 -144.4668)" class="st0 st1 st4">C</text>
<g>
	<rect x="139.86" y="350" class="st3" width="375.14" height="138.4"/>
</g>
<g>
	<text transform="matrix(1 0 0 1 211.7148 431.6777)"><tspan x="0" y="0" class="st0 st1" style="font-size:49px;">C</tspan><tspan x="32.68" y="0" class="st0 st6 st7">abot </tspan><tspan x="121.34" y="0" class="st0 st1" style="font-size:49px;">C</tspan><tspan x="154.02" y="0" class="st0 st6 st7">ruises</tspan></text>
</g>
<g>
	<rect x="139.86" y="0" class="st3" width="345.14" height="138.4"/>
</g>
<g>
	<text transform="matrix(1 0 0 1 181.7148 81.6777)" class="st0 st6 st7">Cabot Cruises</text>
</g>
<g>
	<text transform="matrix(1 0 0 1 432.7148 82.6777)" class="st0 st6 st7">3</text>
</g>
</svg>
